<svg width="80" height="65" viewBox="0 0 80 65" fill="none" xmlns="http://www.w3.org/2000/svg">
<path d="M75.6382 34.8216C73.3176 44.7925 58.7942 52.0116 40 52.0116C21.2058 52.0116 6.6819 44.7925 4.3618 34.8211C1.5134 37.6125 0 40.7232 0 44.0116C0 55.2264 17.57 64.0116 40 64.0116C62.43 64.0116 80 55.2264 80 44.0116C80 40.7235 78.4871 37.6131 75.6382 34.8216Z" fill="#958C7F"/>
<path d="M40 48.0116C57.9434 48.0116 72 40.9842 72 32.0116C72 22.815 62.9 18.0726 54.7031 16.5296C53.834 21.4523 50.9309 25.7809 46.8945 27.8006C46.6177 27.94 46.3119 28.0123 46.002 28.0116C45.5512 28.0122 45.1134 27.8605 44.7597 27.581C44.4059 27.3016 44.157 26.9108 44.0532 26.4721C43.9494 26.0334 43.9968 25.5725 44.1878 25.1642C44.3789 24.7558 44.7022 24.424 45.1055 24.2225C48.5762 22.4881 51 18.0819 51 13.5116C51 8.13663 46 2.51163 38.4844 0.0702258C38.1905 -0.0122178 37.8809 -0.0222329 37.5823 0.0410358C37.2836 0.104305 37.0048 0.238974 36.7695 0.433526C36.5296 0.620658 36.3356 0.860088 36.2022 1.13357C36.0689 1.40705 35.9997 1.70737 36 2.01163C36 13.3475 32.1074 15.5155 23.75 17.8085C16.3672 19.8358 8 22.1325 8 32.0116C8 40.9842 22.0566 48.0116 40 48.0116Z" fill="#958C7F"/>
</svg>
